<svg height="480pt" viewBox="0 0 480 480" width="480pt" xmlns="http://www.w3.org/2000/svg"><path d="m472 56v-48h-464v48h8v384h-8v32h464v-32h-8v-384zm-112 256v-48h48v48zm48 32v48h-48v-48zm-48-112v-48h48v48zm0-80v-48h48v48zm-144 80v-48h48v48zm48 32v48h-48v-48zm-48-112v-48h48v48zm-144 160v-48h48v48zm48 32v48h-48v-48zm-48-112v-48h48v48zm0-80v-48h48v48zm96 288v-96h144v96zm0 0" fill="#c3e0f6"/><g fill="#4b7493"><path d="m72 240h48c4.417969 0 8-3.582031 8-8v-48c0-4.417969-3.582031-8-8-8h-48c-4.417969 0-8 3.582031-8 8v48c0 4.417969 3.582031 8 8 8zm8-48h32v32h-32zm0 0"/><path d="m72 160h48c4.417969 0 8-3.582031 8-8v-48c0-4.417969-3.582031-8-8-8h-48c-4.417969 0-8 3.582031-8 8v48c0 4.417969 3.582031 8 8 8zm8-48h32v32h-32zm0 0"/><path d="m72 320h48c4.417969 0 8-3.582031 8-8v-48c0-4.417969-3.582031-8-8-8h-48c-4.417969 0-8 3.582031-8 8v48c0 4.417969 3.582031 8 8 8zm8-48h32v32h-32zm0 0"/><path d="m72 400h48c4.417969 0 8-3.582031 8-8v-48c0-4.417969-3.582031-8-8-8h-48c-4.417969 0-8 3.582031-8 8v48c0 4.417969 3.582031 8 8 8zm8-48h32v32h-32zm0 0"/><path d="m360 240h48c4.417969 0 8-3.582031 8-8v-48c0-4.417969-3.582031-8-8-8h-48c-4.417969 0-8 3.582031-8 8v48c0 4.417969 3.582031 8 8 8zm8-48h32v32h-32zm0 0"/><path d="m360 320h48c4.417969 0 8-3.582031 8-8v-48c0-4.417969-3.582031-8-8-8h-48c-4.417969 0-8 3.582031-8 8v48c0 4.417969 3.582031 8 8 8zm8-48h32v32h-32zm0 0"/><path d="m360 400h48c4.417969 0 8-3.582031 8-8v-48c0-4.417969-3.582031-8-8-8h-48c-4.417969 0-8 3.582031-8 8v48c0 4.417969 3.582031 8 8 8zm8-48h32v32h-32zm0 0"/><path d="m216 240h48c4.417969 0 8-3.582031 8-8v-48c0-4.417969-3.582031-8-8-8h-48c-4.417969 0-8 3.582031-8 8v48c0 4.417969 3.582031 8 8 8zm8-48h32v32h-32zm0 0"/><path d="m216 160h48c4.417969 0 8-3.582031 8-8v-48c0-4.417969-3.582031-8-8-8h-48c-4.417969 0-8 3.582031-8 8v48c0 4.417969 3.582031 8 8 8zm8-48h32v32h-32zm0 0"/><path d="m360 160h48c4.417969 0 8-3.582031 8-8v-48c0-4.417969-3.582031-8-8-8h-48c-4.417969 0-8 3.582031-8 8v48c0 4.417969 3.582031 8 8 8zm8-48h32v32h-32zm0 0"/><path d="m216 320h48c4.417969 0 8-3.582031 8-8v-48c0-4.417969-3.582031-8-8-8h-48c-4.417969 0-8 3.582031-8 8v48c0 4.417969 3.582031 8 8 8zm8-48h32v32h-32zm0 0"/><path d="m480 56v-48c0-4.417969-3.582031-8-8-8h-464c-4.417969 0-8 3.582031-8 8v48c0 4.417969 3.582031 8 8 8v368c-4.417969 0-8 3.582031-8 8v32c0 4.417969 3.582031 8 8 8h464c4.417969 0 8-3.582031 8-8v-32c0-4.417969-3.582031-8-8-8v-368c4.417969 0 8-3.582031 8-8zm-464-40h448v32h-448zm448 448h-448v-16h448zm-288-80h128v16h-128zm128-16h-128v-16h128zm-128 48h128v16h-128zm280 16h-136v-88c0-4.417969-3.582031-8-8-8h-144c-4.417969 0-8 3.582031-8 8v88h-136v-368h432zm0 0"/></g></svg>