<svg height="480pt" viewBox="-48 0 480 480" width="480pt" xmlns="http://www.w3.org/2000/svg"><path d="m344 80v-24h32l-16-48h-336l-16 48h32v144h-32v32h32v240h112v-112h80v112h112v-240h32v-32h-32zm-256 24h48v48h-48zm0 176h48v48h-48zm160-176h48v48h-48zm0 176h48v48h-48zm0 0" fill="#c3e0f6"/><g fill="#4b7493"><path d="m176 392c-4.417969 0-8 3.582031-8 8v16c0 4.417969 3.582031 8 8 8s8-3.582031 8-8v-16c0-4.417969-3.582031-8-8-8zm0 0"/><path d="m376 192h-24v-128h24c2.570312 0 4.984375-1.238281 6.484375-3.324219 1.503906-2.085937 1.910156-4.765625 1.101563-7.203125l-16-48c-1.089844-3.265625-4.144532-5.46874975-7.585938-5.472656h-336c-3.441406.00390625-6.496094 2.207031-7.585938 5.472656l-16 48c-.808593 2.4375-.4023432 5.117188 1.101563 7.203125 1.5 2.085938 3.914063 3.324219 6.484375 3.324219h24v128h-24c-4.417969 0-8 3.582031-8 8v32c0 4.417969 3.582031 8 8 8h24v232c0 4.417969 3.582031 8 8 8h304c4.417969 0 8-3.582031 8-8v-232h24c4.417969 0 8-3.582031 8-8v-32c0-4.417969-3.582031-8-8-8zm-346.230469-176h324.460938l10.664062 32h-345.789062zm18.230469 48h288v128h-288zm112 400v-96h64v96zm176 0h-96v-104c0-4.417969-3.582031-8-8-8h-80c-4.417969 0-8 3.582031-8 8v104h-96v-224h288zm32-240h-352v-16h352zm0 0"/><path d="m136 96h-48c-4.417969 0-8 3.582031-8 8v48c0 4.417969 3.582031 8 8 8h48c4.417969 0 8-3.582031 8-8v-48c0-4.417969-3.582031-8-8-8zm-8 48h-32v-32h32zm0 0"/><path d="m296 96h-48c-4.417969 0-8 3.582031-8 8v48c0 4.417969 3.582031 8 8 8h48c4.417969 0 8-3.582031 8-8v-48c0-4.417969-3.582031-8-8-8zm-8 48h-32v-32h32zm0 0"/><path d="m88 336h48c4.417969 0 8-3.582031 8-8v-48c0-4.417969-3.582031-8-8-8h-48c-4.417969 0-8 3.582031-8 8v48c0 4.417969 3.582031 8 8 8zm8-48h32v32h-32zm0 0"/><path d="m248 336h48c4.417969 0 8-3.582031 8-8v-48c0-4.417969-3.582031-8-8-8h-48c-4.417969 0-8 3.582031-8 8v48c0 4.417969 3.582031 8 8 8zm8-48h32v32h-32zm0 0"/></g></svg>